<svg preserveAspectRatio="none" overflow="visible" style="display: block;" width="18" height="22.5" viewBox="0 0 18 22.5" fill="none" xmlns="http://www.w3.org/2000/svg">
<g id="Group">
<path id="Vector" d="M9 0C8.55245 0 8.12322 0.17779 7.80676 0.494257C7.49029 0.810725 7.3125 1.23995 7.3125 1.6875V1.935C5.86906 2.30768 4.58959 3.14772 3.67378 4.32403C2.75796 5.50034 2.25733 6.94674 2.25 8.4375V14.625L0 16.875V18H18V16.875L15.75 14.625V8.4375C15.7427 6.94674 15.242 5.50034 14.3262 4.32403C13.4104 3.14772 12.1309 2.30768 10.6875 1.935V1.6875C10.6875 1.23995 10.5097 0.810725 10.1932 0.494257C9.87678 0.17779 9.44755 0 9 0ZM6.75 20.25C6.75 20.8467 6.98705 21.419 7.40901 21.841C7.83097 22.2629 8.40326 22.5 9 22.5C9.59674 22.5 10.169 22.2629 10.591 21.841C11.0129 21.419 11.25 20.8467 11.25 20.25H6.75Z" fill="#7C3AED"/>
</g>
</svg>
