<svg preserveAspectRatio="none" overflow="visible" style="display: block;" width="22.7" height="31.7" viewBox="0 0 22.7 31.7" fill="none" xmlns="http://www.w3.org/2000/svg">
<g id="Group">
<path id="Vector" d="M17.35 6.85C17.35 3.53629 14.6637 0.85 11.35 0.85C8.03629 0.85 5.35 3.53629 5.35 6.85V14.35C5.35 17.6637 8.03629 20.35 11.35 20.35C14.6637 20.35 17.35 17.6637 17.35 14.35V6.85Z" stroke="#7C3AED" stroke-width="1.7" stroke-linecap="round" stroke-linejoin="round"/>
<path id="Vector_2" d="M21.85 12.85V15.85C21.85 18.6348 20.7438 21.3055 18.7746 23.2746C16.8055 25.2438 14.1348 26.35 11.35 26.35C8.56523 26.35 5.89451 25.2438 3.92538 23.2746C1.95625 21.3055 0.85 18.6348 0.85 15.85V12.85M11.35 26.35V30.85M5.35 30.85H17.35" stroke="#7C3AED" stroke-width="1.7" stroke-linecap="round" stroke-linejoin="round"/>
</g>
</svg>
